<svg xmlns="http://www.w3.org/2000/svg" viewBox="0 0 256 256">
  <g fill="#fff">
    <mask id="a">
      <path d="M32 64.3a32 32 0 00-29.2 45.3A32 32 0 0032 128.5h128.2a42.8 42.8 0 0042.7-42.8A42.8 42.8 0 00156.6 43a64.3 64.3 0 00-34.1-37.3A63.7 63.7 0 0096 .1c-35.4 0-64 28.8-64 64.2z"/>
    </mask>
    <mask id="b">
      <path d="M125.4 26.8a64.1 64.1 0 01-64 64.2A63.7 63.7 0 0135 85.3a64.2 64.2 0 004.5 8.2 32.2 32.2 0 01-10.1 9.2 31.9 31.9 0 01-16 4.3A31.9 31.9 0 010 104.2 32 32 0 0029.3 123h128.2a42.8 42.8 0 0042.7-42.8 42.8 42.8 0 00-25.2-39 42.6 42.6 0 013.8 17.6 42.8 42.8 0 01-37.4 42.4 64 64 0 0016-42.4A64.2 64.2 0 00119.9.4a63.9 63.9 0 015.6 26.4z"/>
    </mask>
  </g>
  <circle cx="128" cy="128" r="128" fill="#43B1E3"/>
  <polygon fill="#FFF" points="-2.7 131.2 205.6 131.2 205.6 -2.6 -2.7 -2.6" mask="url(#a)" transform="translate(27 52.4)"/>
  <polygon fill="#F0F0F0" points="-2.5 125.8 202.9 125.8 202.9 -2.3 -2.5 -2.3" mask="url(#b)" transform="translate(29.7 57.8)"/>
  <g transform="translate(74 102)">
    <circle cx="55" cy="29.8" r="23.7" fill="#F8A91C"/>
    <path fill="#373737" d="M99.9 24.2S84.2 0 54.6 0A57.3 57.3 0 009.3 24.2C6 27.5 0 29.5 0 29.5s6 2 9.3 5.2c0 0 15.7 24.2 45.3 24.2a57.3 57.3 0 0045.3-24.2c3.2-3.3 9.8-5.2 9.8-5.2s-6.6-2-9.8-5.3M54.7 46.8c-10.4 0-18.9-7.8-18.9-17.3 0-9.6 8.5-17.3 19-17.3 10.4 0 18.8 7.7 18.8 17.3 0 9.5-8.4 17.3-18.9 17.3"/>
    <ellipse cx="54.8" cy="29.5" fill="#373737" rx="2.5" ry="16.4"/>
  </g>
</svg>