<svg xmlns="http://www.w3.org/2000/svg" viewBox="0 0 256 256">
  <path fill="#0685BA" d="M186.1 100.6a70.4 70.4 0 11-140.8 0 70.4 70.4 0 01140.8 0"/>
  <polygon fill="#FFF" points="114.4 10.1 117.6 10.1 117.6 100.6 114.4 100.6"/>
  <polygon fill="#FFF" points="15.7 99 111.3 99 111.3 102.2 15.7 102.2"/>
  <polyline fill="#FFF" points="114.7 101.8 49.3 46.5 51.3 44.1 116.7 99.4 114.7 101.8"/>
  <polyline fill="#FFF" points="117 101.5 114.4 99.7 161.9 32.4 164.5 34.2 117 101.5"/>
  <polygon fill="#FFF" points="115.7 99 216.9 99 216.9 102.2 115.7 102.2"/>
  <polyline fill="#FFF" points="180.2 147.1 114.8 101.9 116.6 99.3 182 144.6 180.2 147.1"/>
  <polyline fill="#FFF" points="42.7 129.7 41.6 126.8 115.1 99.1 116.3 102.1 42.7 129.7"/>
  <path fill="#FFC64A" d="M166.3 100.6a50.6 50.6 0 11-101.2 0 50.6 50.6 0 01101.2 0"/>
  <path fill="#404040" d="M135.8 100.6a20.1 20.1 0 11-40.2 0 20.1 20.1 0 0140.2 0"/>
  <path fill="#FBD764" d="M128.3 100.6a12.6 12.6 0 11-25.2 0 12.6 12.6 0 0125.2 0"/>
  <path fill="#FFF" d="M135.7 123.2c-1.2 0-2.2.5-3 1.4a3.8 3.8 0 00-6.5-2 3.8 3.8 0 00-6.6-1.8V100a3.8 3.8 0 00-7.5.6v34c-3.2-2.4-7-3.8-11.3-3.8a3.8 3.8 0 000 7.5c6.2 0 11.3 8.4 11.3 14.6v4.3h27.3V127c0-2-1.7-3.8-3.7-3.8"/>
  <path fill="#404040" d="M178.7 33.3a15.5 15.5 0 11-31 0 15.5 15.5 0 0131 0"/>
  <path fill="#FFF" d="M173.2 33.3a10 10 0 11-20 0 10 10 0 0120 0"/>
  <path fill="#404040" d="M31.2 100.6a15.5 15.5 0 11-31 0 15.5 15.5 0 0131 0"/>
  <path fill="#FFF" d="M25.8 100.6a10 10 0 11-20.1 0 10 10 0 0120 0"/>
  <path fill="#404040" d="M60.4 45.3a10 10 0 11-20.2 0 10 10 0 0120.2 0"/>
  <path fill="#FFC64A" d="M227 100.6a10 10 0 11-20.1 0 10 10 0 0120.1 0M55.3 127.3a10 10 0 11-20 0 10 10 0 0120 0"/>
  <path fill="#404040" d="M176.7 60.4a5 5 0 11-10 0 5 5 0 0110 0"/>
  <path fill="#FFF" d="M71 150.9a5 5 0 11-10 0 5 5 0 0110 0M189.2 60.4a3 3 0 11-6.1 0 3 3 0 016 0M58.4 70.4a3 3 0 11-6.1 0 3 3 0 016 0"/>
  <path fill="#404040" d="M89.3 37a3.8 3.8 0 11-7.6 0 3.8 3.8 0 017.6 0"/>
  <path fill="#FFF" d="M170.4 161a3.8 3.8 0 11-7.5 0 3.8 3.8 0 017.5 0"/>
  <path fill="#404040" d="M58.8 161a3.5 3.5 0 11-7 0 3.5 3.5 0 017 0"/>
  <path fill="#FFC64A" d="M125.8 10a10 10 0 11-20.2 0 10 10 0 0120.2 0"/>
  <polygon fill="#404040" points="112.1 157.2 139.4 157.2 139.4 171 112.1 171"/>
  <polygon fill="#545454" points="112.1 157.2 125.8 157.2 125.8 171 112.1 171"/>
  <path fill="#FFF" d="M152.2 100.6h-3.1c0-18.4-15-33.4-33.4-33.4v-3.1a36.6 36.6 0 0136.5 36.5"/>
  <path fill="#FFF" d="M134.8 81.5a27 27 0 00-38.2 0l-2.2-2.2a30.2 30.2 0 0142.6 0l-2.2 2.2M88.4 127.9a38.4 38.4 0 010-54.6l2.2 2.2a35.2 35.2 0 000 50.2l-2.2 2.2M120.7 10a5 5 0 11-10 0 5 5 0 0110 0M221.3 100.6a5 5 0 11-10 0 5 5 0 0110 0M55.3 45.3a5 5 0 11-10 0 5 5 0 0110 0"/>
  <path fill="#404040" d="M191.2 145.9a10 10 0 11-20.2 0 10 10 0 0120.2 0"/>
  <path fill="#FFF" d="M186.1 145.9a5 5 0 11-10 0 5 5 0 0110 0M50.3 127.3a5 5 0 11-10 0 5 5 0 0110 0"/>
</svg>