<svg xmlns="http://www.w3.org/2000/svg" viewBox="0 0 256 256">
  <defs>
    <path id="a" d="M32.03 64.3a32.06 32.06 0 00-29.2 45.28 32.03 32.03 0 0029.2 18.88h128.14a42.75 42.75 0 0042.7-42.78 42.78 42.78 0 00-46.3-42.63A64.34 64.34 0 00122.46 5.8 63.74 63.74 0 0096.1.12C60.71.12 32.03 28.85 32.03 64.3z"/>
    <path id="c" d="M125.44 26.8c0 35.45-28.68 64.18-64.07 64.18a63.7 63.7 0 01-26.36-5.69 64.18 64.18 0 004.45 8.2 32.22 32.22 0 01-10.1 9.23 31.86 31.86 0 01-16.04 4.3 31.9 31.9 0 01-13.18-2.84 32.03 32.03 0 0029.2 18.88h128.13a42.75 42.75 0 0042.72-42.78 42.78 42.78 0 00-25.15-38.99 42.65 42.65 0 013.79 17.6 42.77 42.77 0 01-37.38 42.45 63.99 63.99 0 0016.02-42.45A64.16 64.16 0 00119.77.41a63.9 63.9 0 015.67 26.4z"/>
  </defs>
  <g transform="translate(27 52.42)">
    <mask id="b" fill="#fff">
      <use href="#a"/>
    </mask>
    <polygon fill="#FFF" points="-2.69 131.16 205.57 131.16 205.57 -2.58 -2.69 -2.58" mask="url(#b)"/>
  </g>
  <g transform="translate(29.7 57.82)">
    <mask id="d" fill="#fff">
      <use href="#c"/>
    </mask>
    <polygon fill="#F0F0F0" points="-2.55 125.76 202.88 125.76 202.88 -2.29 -2.55 -2.29" mask="url(#d)"/>
  </g>
</svg>