<svg xmlns="http://www.w3.org/2000/svg" viewBox="0 0 60 60" fill="#43B1E3">
  <path d="M29 50.5H12.6C5.65 50.5 0 44.93 0 38.06c0-5.1 3.12-9.63 7.84-11.52A18.31 18.31 0 0126.13 6.51c7.54 0 14.31 4.57 17.09 11.46h.31C52.61 17.96 60 25.38 60 34.5a1 1 0 01-2 0c0-8.02-6.49-14.55-14.47-14.55-.29 0-.58.02-.87.05a1 1 0 01-1.05-.66A16.4 16.4 0 0026.13 8.51c-9.04 0-16.4 7.26-16.4 16.18 0 .75.07 1.52.2 2.34a1 1 0 01-.67 1.11A10.43 10.43 0 002 38.05c0 5.77 4.75 10.46 10.6 10.46H29a1 1 0 110 2"/>
  <path d="M55 54.51H37a1 1 0 01-1-1v-12a1 1 0 011-1h18a1 1 0 011 1v12a1 1 0 01-1 1zm-17-2h16v-10H38v10z"/>
  <path d="M41 42.37a1 1 0 01-1-1V38.5a6 6 0 0112 0V41a1 1 0 01-2 0v-2.5a4 4 0 00-8 0v2.87a1 1 0 01-1 1"/>
</svg>