<svg xmlns="http://www.w3.org/2000/svg" viewBox="0 0 60 60" fill="#43B1E3">
  <path d="M57 54H3a3 3 0 01-3-3V9a3 3 0 013-3h54a3 3 0 013 3v42a3 3 0 01-3 3zM3 8a1 1 0 00-1 1v42c0 .5.4 1 1 1h54c.5 0 1-.5 1-1V9c0-.6-.5-1-1-1H3z"/>
  <path d="M59 16H1a1 1 0 110-2h58a1 1 0 110 2M40 47H20a1 1 0 01-1-1V33c0-.6.4-1 1-1h20c.6 0 1 .4 1 1v13c0 .6-.4 1-1 1zm-19-2h18V34H21v11z"/>
  <path d="M36 34a1 1 0 01-1-1v-4.6c0-3-2.2-5.4-5-5.4s-5 2.4-5 5.4V33a1 1 0 11-2 0v-4.6c0-4.1 3.1-7.4 7-7.4s7 3.3 7 7.4V33c0 .6-.4 1-1 1M5 12a1 1 0 01-1-1 1 1 0 111 1M8 12a1 1 0 01-1-1 1 1 0 111 1M11 12a1 1 0 01-1-1 1 1 0 111 1"/>
</svg>