<svg xmlns="http://www.w3.org/2000/svg" viewBox="0 0 60 60" fill="#43B1E3">
  <path d="M57 12a1 1 0 01-1-1c0-4.3-10.4-9-26-9S4 6.7 4 11a1 1 0 11-2 0C2 4.8 14.3 0 30 0s28 4.8 28 11c0 .6-.4 1-1 1M30 60C14.3 60 2 55.2 2 49a1 1 0 112 0c0 4.3 10.4 9 26 9a1 1 0 010 2M30 47C14.3 47 2 42.2 2 36a1 1 0 112 0c0 4.3 10.4 9 26 9a1 1 0 110 2M30 34C14.3 34 2 29.2 2 23a1 1 0 112 0c0 4.3 10.4 9 26 9s26-4.7 26-9a1 1 0 112 0c0 6.2-12.3 11-28 11"/>
  <path d="M3 49.6a1 1 0 01-1-1V11.4a1 1 0 012 0v37.2c0 .6-.4 1-1 1M57 37a1 1 0 01-1-1V11.4a1 1 0 012 0V36c0 .6-.4 1-1 1"/>
  <path d="M30 22C14.3 22 2 17.2 2 11a1 1 0 112 0c0 4.3 10.4 9 26 9s26-4.7 26-9a1 1 0 112 0c0 6.2-12.3 11-28 11M45 60a1 1 0 01-.2-2c.3 0 7-1.8 7.2-13.3-3.9-1.7-7.5-4.8-7.7-5a1 1 0 011.4-1.5s3.9 3.5 7.6 4.9c.4.1.7.5.7.9 0 13.9-8.4 15.9-8.8 16H45"/>
  <path d="M45 60h-.2c-.4-.1-8.8-2.1-8.8-16 0-.4.3-.8.7-1 3.7-1.3 7.6-4.7 7.6-4.8a1 1 0 011.4 1.6c-.2 0-3.8 3.2-7.7 4.9.3 11.5 7 13.3 7.2 13.3.6.2.9.7.8 1.2a1 1 0 01-1 .8"/>
</svg>