<svg xmlns="http://www.w3.org/2000/svg" viewBox="0 0 198 29">
  <path fill="#333" d="M61 21.3v-2.8c1.7.6 3.6 1 5.7 1 2.6 0 3.8-1 3.8-2.7 0-1.2-.7-1.8-2.3-1.8h-2.9c-3.4 0-5.1-1.6-5.1-4.7 0-3.5 2.4-5.2 7.3-5.2 1.9 0 3.6.3 5.3.8v2.9c-1.7-.7-3.4-1-5.3-1-2.8 0-4.2.8-4.2 2.5 0 1.2.7 1.9 2 1.9h2.9c3.6 0 5.4 1.5 5.4 4.6 0 3.6-2.3 5.3-7 5.3-2 0-4-.3-5.6-.8zm25.2-4.2h-8c0 1.6 1.3 2.4 4 2.4a20 20 0 003.7-.3v2.4c-1 .3-2.4.4-4.2.4-4.4 0-6.6-2.1-6.6-6.3 0-4 2-6 6-6 4.2 0 5.8 2.4 5.1 7.4zm-8-2.3h5c.2-1.8-.6-2.7-2.4-2.7-1.6 0-2.5 1-2.6 2.7zM88.5 22V9.7H91l.4 1.6c1.1-1 2.3-1.6 3.5-1.6v2.5a4 4 0 00-3.2 1.6V22h-3zm11.1-3.2c.9.4 1.8.6 2.9.6 1.9 0 2.9-1.3 2.9-3.9 0-2.2-1.1-3.3-3.3-3.3-1 0-1.9 0-2.5.2v6.4zm-3-8.6a27 27 0 015.3-.5c4.4 0 6.5 2 6.5 5.8 0 4.3-2 6.5-6 6.5-1 0-1.9-.2-2.8-.6v5h-3V10.3zm24.4 6.9h-8c0 1.6 1.3 2.4 4 2.4a20 20 0 003.7-.3v2.4c-1 .3-2.5.4-4.2.4-4.4 0-6.7-2.1-6.7-6.3 0-4 2-6 6.2-6 4 0 5.7 2.4 5 7.4zm-8-2.3h5c.2-1.8-.6-2.7-2.4-2.7-1.6 0-2.5 1-2.7 2.7zm10.3 7.2V9.7h2.4l.4 1.6c1.5-1 3-1.6 4.5-1.6 2.8 0 4.3 1.5 4.3 4.6V22h-3.1v-7.8c0-1.3-.7-2-2-2-1.2 0-2.3.5-3.4 1.6V22h-3zm14.5-14.3h2.3l.5 2h2.8v2.5H141v5.6c0 1.2.5 1.7 1.5 1.7h1V22H141c-2 0-3.1-1.1-3.1-3.3v-11zm28.3-2.5L158.8 22h-3.4l-7-16.8h3.7l5.2 12.9 5.2-12.9h3.6zM168 22V5.2h7.8c3.2 0 4.8 1.5 4.8 4.3 0 3.3-2.3 5.4-6.9 6l-.4-2.7c2.7-.5 4-1.6 4-3.2 0-1-.5-1.6-1.7-1.6H171v14h-3.1zm14.5 0V5.2h3.2l9.3 12v-12h3V22h-3.2l-9.3-12.2V22h-3z"/>
  <g id="eye">
    <circle cx="27.1" cy="14.7" r="11.7" fill="#F8A91C"/>
    <path fill="#373737" d="M49.2 12S41.4 0 26.9 0C12.3 0 4.6 12 4.6 12 3 13.4 0 14.4 0 14.4s3 1 4.6 2.6c0 0 7.7 11.9 22.3 11.9 14.5 0 22.3-12 22.3-12 1.5-1.5 4.8-2.5 4.8-2.5s-3.3-1-4.8-2.6M26.9 23c-5.1 0-9.3-3.8-9.3-8.5S21.8 6 27 6c5.2 0 9.4 3.8 9.4 8.5S32 23 26.9 23"/>
    <ellipse cx="27" cy="14.5" fill="#373737" rx="1.2" ry="8.1"/>
  </g>
</svg>