<svg xmlns="http://www.w3.org/2000/svg" viewBox="0 0 256 256">
  <g transform="translate(74 102)">
    <circle cx="55" cy="29.8" r="23.7" fill="#F8A91C"/>
    <path fill="#373737" d="M99.9 24.2S84.2 0 54.6 0C25 0 9.3 24.2 9.3 24.2 6 27.5 0 29.5 0 29.5s6 2 9.3 5.2c0 0 15.7 24.2 45.3 24.2 29.6 0 45.3-24.2 45.3-24.2 3.2-3.3 9.8-5.2 9.8-5.2s-6.6-2-9.8-5.3M54.7 46.8c-10.4 0-18.9-7.8-18.9-17.3 0-9.6 8.5-17.3 19-17.3 10.4 0 18.8 7.7 18.8 17.3 0 9.5-8.4 17.3-18.9 17.3"/>
    <ellipse cx="54.8" cy="29.5" fill="#373737" rx="2.5" ry="16.4"/>
  </g>
</svg>