<svg xmlns="http://www.w3.org/2000/svg">
  <defs>
    <svg id="layer_eye" viewBox="0 0 256 256">
      <g transform="translate(74 102)">
        <circle cx="55" cy="29.8" r="23.7" fill="#F8A91C"/>
        <path fill="#373737" d="M99.9 24.2S84.2 0 54.6 0C25 0 9.3 24.2 9.3 24.2 6 27.5 0 29.5 0 29.5s6 2 9.3 5.2c0 0 15.7 24.2 45.3 24.2 29.6 0 45.3-24.2 45.3-24.2 3.2-3.3 9.8-5.2 9.8-5.2s-6.6-2-9.8-5.3M54.7 46.8c-10.4 0-18.9-7.8-18.9-17.3 0-9.6 8.5-17.3 19-17.3 10.4 0 18.8 7.7 18.8 17.3 0 9.5-8.4 17.3-18.9 17.3"/>
        <ellipse cx="54.8" cy="29.5" fill="#373737" rx="2.5" ry="16.4"/>
      </g>
    </svg>
    <svg id="layer_logo" viewBox="0 0 198 29">
      <path fill="#333" d="M61 21.3v-2.8c1.7.6 3.6 1 5.7 1 2.6 0 3.8-1 3.8-2.7 0-1.2-.7-1.8-2.3-1.8h-2.9c-3.4 0-5.1-1.6-5.1-4.7 0-3.5 2.4-5.2 7.3-5.2 1.9 0 3.6.3 5.3.8v2.9c-1.7-.7-3.4-1-5.3-1-2.8 0-4.2.8-4.2 2.5 0 1.2.7 1.9 2 1.9h2.9c3.6 0 5.4 1.5 5.4 4.6 0 3.6-2.3 5.3-7 5.3-2 0-4-.3-5.6-.8zm25.2-4.2h-8c0 1.6 1.3 2.4 4 2.4a20 20 0 003.7-.3v2.4c-1 .3-2.4.4-4.2.4-4.4 0-6.6-2.1-6.6-6.3 0-4 2-6 6-6 4.2 0 5.8 2.4 5.1 7.4zm-8-2.3h5c.2-1.8-.6-2.7-2.4-2.7-1.6 0-2.5 1-2.6 2.7zM88.5 22V9.7H91l.4 1.6c1.1-1 2.3-1.6 3.5-1.6v2.5a4 4 0 00-3.2 1.6V22h-3zm11.1-3.2c.9.4 1.8.6 2.9.6 1.9 0 2.9-1.3 2.9-3.9 0-2.2-1.1-3.3-3.3-3.3-1 0-1.9 0-2.5.2v6.4zm-3-8.6a27 27 0 015.3-.5c4.4 0 6.5 2 6.5 5.8 0 4.3-2 6.5-6 6.5-1 0-1.9-.2-2.8-.6v5h-3V10.3zm24.4 6.9h-8c0 1.6 1.3 2.4 4 2.4a20 20 0 003.7-.3v2.4c-1 .3-2.5.4-4.2.4-4.4 0-6.7-2.1-6.7-6.3 0-4 2-6 6.2-6 4 0 5.7 2.4 5 7.4zm-8-2.3h5c.2-1.8-.6-2.7-2.4-2.7-1.6 0-2.5 1-2.7 2.7zm10.3 7.2V9.7h2.4l.4 1.6c1.5-1 3-1.6 4.5-1.6 2.8 0 4.3 1.5 4.3 4.6V22h-3.1v-7.8c0-1.3-.7-2-2-2-1.2 0-2.3.5-3.4 1.6V22h-3zm14.5-14.3h2.3l.5 2h2.8v2.5H141v5.6c0 1.2.5 1.7 1.5 1.7h1V22H141c-2 0-3.1-1.1-3.1-3.3v-11zm28.3-2.5L158.8 22h-3.4l-7-16.8h3.7l5.2 12.9 5.2-12.9h3.6zM168 22V5.2h7.8c3.2 0 4.8 1.5 4.8 4.3 0 3.3-2.3 5.4-6.9 6l-.4-2.7c2.7-.5 4-1.6 4-3.2 0-1-.5-1.6-1.7-1.6H171v14h-3.1zm14.5 0V5.2h3.2l9.3 12v-12h3V22h-3.2l-9.3-12.2V22h-3z"/>
      <g transform="scale(4.2 4.2) translate(-92.5 -11.5)">
        <use href="#layer_eye"/>
      </g>
    </svg>
    <svg id="layer_secure" viewBox="0 0 256 256">
      <defs>
        <path id="ls_a" d="M0 39v40h10V39c0-16 12-29 28-29s28 13 28 29v40h10V39C76 18 59 0 38 0S0 18 0 39z"/>
        <mask id="ls_b" fill="#fff">
          <use href="#ls_a"/>
        </mask>
        <path id="ls_c" d="M1 49v40h9V49c0-21 17-39 38-39s38 18 38 39v40h9V49C95 22 74 1 48 1S1 22 1 49z"/>
        <mask id="ls_d" fill="#fff">
          <use href="#ls_c"/>
        </mask>
        <path id="ls_e" d="M0 27c0 14 12 26 26 26s26-12 26-26S40 1 26 1 0 13 0 27z"/>
        <mask id="ls_f" fill="#fff">
          <use href="#ls_e"/>
        </mask>
        <path id="ls_g" d="M1 30c0 16 13 29 29 29s29-13 29-29S46 1 30 1 1 14 1 30zm7 0C8 18 18 8 30 8s22 10 22 22-10 22-22 22S8 42 8 30z"/>
        <mask id="ls_h" fill="#fff">
          <use href="#ls_g"/>
        </mask>
      </defs>
      <g transform="translate(66 33)">
        <g transform="translate(25 11)">
          <polygon fill="#D1D1D1" points="-7 86 83 86 83 -7 -7 -7" mask="url(#ls_b)"/>
        </g>
        <g transform="translate(15 1)">
          <polygon fill="#EFEFEF" points="-7 96 103 96 103 -7 -7 -7" mask="url(#ls_d)"/>
        </g>
        <polygon fill="#EEB845" points="0 177 126 177 126 86 0 86"/>
        <polygon fill="#FFC64A" points="30 177 96 177 96 86 30 86"/>
        <g transform="translate(37 106)">
          <polygon fill="#FFF" points="-7 61 59 61 59 -7 -7 -7" mask="url(#ls_f)"/>
        </g>
        <polygon fill="#404040" points="60 137 55 132 52 134 60 142 74 128 71 126"/>
        <g transform="translate(33 103)">
          <polygon fill="#EEB845" points="-7 67 66 67 66 -7 -7 -7" mask="url(#ls_h)"/>
        </g>
      </g>
    </svg>
    <svg id="layer_cloud" viewBox="0 0 256 256">
      <defs>
        <path id="lc_a" d="M32.03 64.3a32.06 32.06 0 00-29.2 45.28 32.03 32.03 0 0029.2 18.88h128.14a42.75 42.75 0 0042.7-42.78 42.78 42.78 0 00-46.3-42.63A64.34 64.34 0 00122.46 5.8 63.74 63.74 0 0096.1.12C60.71.12 32.03 28.85 32.03 64.3z"/>
        <mask id="lc_b" fill="#fff">
          <use href="#lc_a"/>
        </mask>
        <path id="lc_c" d="M125.44 26.8c0 35.45-28.68 64.18-64.07 64.18a63.7 63.7 0 01-26.36-5.69 64.18 64.18 0 004.45 8.2 32.22 32.22 0 01-10.1 9.23 31.86 31.86 0 01-16.04 4.3 31.9 31.9 0 01-13.18-2.84 32.03 32.03 0 0029.2 18.88h128.13a42.75 42.75 0 0042.72-42.78 42.78 42.78 0 00-25.15-38.99 42.65 42.65 0 013.79 17.6 42.77 42.77 0 01-37.38 42.45 63.99 63.99 0 0016.02-42.45A64.16 64.16 0 00119.77.41a63.9 63.9 0 015.67 26.4z"/>
        <mask id="lc_d" fill="#fff">
          <use href="#lc_c"/>
        </mask>
      </defs>
      <g transform="translate(27 52.42)">
        <polygon fill="#FFF" points="-2.69 131.16 205.57 131.16 205.57 -2.58 -2.69 -2.58" mask="url(#lc_b)"/>
      </g>
      <g transform="translate(29.7 57.82)">
        <polygon fill="#F0F0F0" points="-2.55 125.76 202.88 125.76 202.88 -2.29 -2.55 -2.29" mask="url(#lc_d)"/>
      </g>
      <use href="#layer_eye"/>
    </svg>
    <svg id="layer_advantages" viewBox="0 0 256 256">
      <path fill="#0685BA" d="M186.1 100.6a70.4 70.4 0 11-140.8 0 70.4 70.4 0 01140.8 0"/>
      <polygon fill="#FFF" points="114.4 10.1 117.6 10.1 117.6 100.6 114.4 100.6"/>
      <polygon fill="#FFF" points="15.7 99 111.3 99 111.3 102.2 15.7 102.2"/>
      <polyline fill="#FFF" points="114.7 101.8 49.3 46.5 51.3 44.1 116.7 99.4 114.7 101.8"/>
      <polyline fill="#FFF" points="117 101.5 114.4 99.7 161.9 32.4 164.5 34.2 117 101.5"/>
      <polygon fill="#FFF" points="115.7 99 216.9 99 216.9 102.2 115.7 102.2"/>
      <polyline fill="#FFF" points="180.2 147.1 114.8 101.9 116.6 99.3 182 144.6 180.2 147.1"/>
      <polyline fill="#FFF" points="42.7 129.7 41.6 126.8 115.1 99.1 116.3 102.1 42.7 129.7"/>
      <path fill="#FFC64A" d="M166.3 100.6a50.6 50.6 0 11-101.2 0 50.6 50.6 0 01101.2 0"/>
      <path fill="#404040" d="M135.8 100.6a20.1 20.1 0 11-40.2 0 20.1 20.1 0 0140.2 0"/>
      <path fill="#FBD764" d="M128.3 100.6a12.6 12.6 0 11-25.2 0 12.6 12.6 0 0125.2 0"/>
      <path fill="#FFF" d="M135.7 123.2c-1.2 0-2.2.5-3 1.4a3.8 3.8 0 00-6.5-2 3.8 3.8 0 00-6.6-1.8V100a3.8 3.8 0 00-7.5.6v34c-3.2-2.4-7-3.8-11.3-3.8a3.8 3.8 0 000 7.5c6.2 0 11.3 8.4 11.3 14.6v4.3h27.3V127c0-2-1.7-3.8-3.7-3.8"/>
      <path fill="#404040" d="M178.7 33.3a15.5 15.5 0 11-31 0 15.5 15.5 0 0131 0"/>
      <path fill="#FFF" d="M173.2 33.3a10 10 0 11-20 0 10 10 0 0120 0"/>
      <path fill="#404040" d="M31.2 100.6a15.5 15.5 0 11-31 0 15.5 15.5 0 0131 0"/>
      <path fill="#FFF" d="M25.8 100.6a10 10 0 11-20.1 0 10 10 0 0120 0"/>
      <path fill="#404040" d="M60.4 45.3a10 10 0 11-20.2 0 10 10 0 0120.2 0"/>
      <path fill="#FFC64A" d="M227 100.6a10 10 0 11-20.1 0 10 10 0 0120.1 0M55.3 127.3a10 10 0 11-20 0 10 10 0 0120 0"/>
      <path fill="#404040" d="M176.7 60.4a5 5 0 11-10 0 5 5 0 0110 0"/>
      <path fill="#FFF" d="M71 150.9a5 5 0 11-10 0 5 5 0 0110 0M189.2 60.4a3 3 0 11-6.1 0 3 3 0 016 0M58.4 70.4a3 3 0 11-6.1 0 3 3 0 016 0"/>
      <path fill="#404040" d="M89.3 37a3.8 3.8 0 11-7.6 0 3.8 3.8 0 017.6 0"/>
      <path fill="#FFF" d="M170.4 161a3.8 3.8 0 11-7.5 0 3.8 3.8 0 017.5 0"/>
      <path fill="#404040" d="M58.8 161a3.5 3.5 0 11-7 0 3.5 3.5 0 017 0"/>
      <path fill="#FFC64A" d="M125.8 10a10 10 0 11-20.2 0 10 10 0 0120.2 0"/>
      <polygon fill="#404040" points="112.1 157.2 139.4 157.2 139.4 171 112.1 171"/>
      <polygon fill="#545454" points="112.1 157.2 125.8 157.2 125.8 171 112.1 171"/>
      <path fill="#FFF" d="M152.2 100.6h-3.1c0-18.4-15-33.4-33.4-33.4v-3.1a36.6 36.6 0 0136.5 36.5"/>
      <path fill="#FFF" d="M134.8 81.5a27 27 0 00-38.2 0l-2.2-2.2a30.2 30.2 0 0142.6 0l-2.2 2.2M88.4 127.9a38.4 38.4 0 010-54.6l2.2 2.2a35.2 35.2 0 000 50.2l-2.2 2.2M120.7 10a5 5 0 11-10 0 5 5 0 0110 0M221.3 100.6a5 5 0 11-10 0 5 5 0 0110 0M55.3 45.3a5 5 0 11-10 0 5 5 0 0110 0"/>
      <path fill="#404040" d="M191.2 145.9a10 10 0 11-20.2 0 10 10 0 0120.2 0"/>
      <path fill="#FFF" d="M186.1 145.9a5 5 0 11-10 0 5 5 0 0110 0M50.3 127.3a5 5 0 11-10 0 5 5 0 0110 0"/>
    </svg>
  </defs>
</svg>